<svg data-v-0dd9719b="" version="1.0" xmlns="http://www.w3.org/2000/svg" xmlns:xlink="http://www.w3.org/1999/xlink" width="100%" height="100%" viewBox="0 0 340.000000 250.000000" preserveAspectRatio="xMidYMid meet" color-interpolation-filters="sRGB" style="margin: auto;"> <rect data-v-0dd9719b="" x="0" y="0" width="100%" height="100%" fill="#fff" fill-opacity="1" class="background"></rect> <rect data-v-0dd9719b="" x="0" y="0" width="100%" height="100%" fill="url(#watermark)" fill-opacity="1" class="watermarklayer"></rect> <g data-v-0dd9719b="" fill="#333" class="icon-text-wrapper icon-svg-group iconsvg" transform="translate(48.79499816894531,94.96395683288574)"><g class="iconsvg-imagesvg" transform="translate(0,0)"><g><rect fill="#333" fill-opacity="0" stroke-width="2" x="0" y="0" width="60" height="60.07208650380456" class="image-rect"></rect> <svg x="0" y="0" width="60" height="60.07208650380456" filtersec="colorsb2039838088" class="image-svg-svg primary" style="overflow: visible;"><svg xmlns="http://www.w3.org/2000/svg" viewBox="0 -0.00001430726933904225 99.8800048828125 100.00004577636719"><g fill-rule="evenodd"><path d="M10.85 81.18L46.64 87V76.88l-40.3-2.39a49.59 49.59 0 0 0 4.51 6.69zM51.52 100v-8.74l-37.47-6.45A49.85 49.85 0 0 0 49.94 100h1.58zM1.57 62.7l63.7 1.11v10L3.15 67.68a48.89 48.89 0 0 1-1.58-5zM.49 57.48l56.82 3.27V50.54L0 52.53c.08 1.67.25 3.32.49 4.95zM0 47.19L44.45 49V38.39l-43.94 4C.27 44 .11 45.58 0 47.19zM1.62 37.09l32.83-1.35v-10l-30.66 5a49 49 0 0 0-2.17 6.35zM6.32 25.55l35.4-3.08V11.64l-30 6.12a49.44 49.44 0 0 0-5.41 7.79zM49.63 0v9.2L15.26 14A49.84 49.84 0 0 1 49.63 0z" fill="#2491eb"></path><path d="M90 80l-43.36 7V76.88l47.12-2.8A50.6 50.6 0 0 1 90 80zM51.52 100v-8.74l34.33-6.48A49.82 49.82 0 0 1 51.52 100zM96.25 68.86l-31 5v-10l33-1.08a49 49 0 0 1-2 6.13zM99.42 57.18l-42.11 3.57V50.54l42.57 1.71c-.07 1.66-.23 3.31-.46 4.93zM99.88 47.67L44.45 49V38.39l54.81 3.38a49.74 49.74 0 0 1 .62 5.9zM98.19 36.88l-63.74-1.14v-10l62 5.95a48.69 48.69 0 0 1 1.72 5.2zM93.78 26l-52.06-3.53V11.64l47.39 7.29a50.45 50.45 0 0 1 4.67 7zM49.63 0v9.2l35.18 5A49.82 49.82 0 0 0 49.94 0z" fill="#145593"></path></g></svg></svg> <!----></g></g> <g transform="translate(67,0.9847946166992188)"><g data-gra="path-name" fill-rule="" class="tp-name iconsvg-namesvg" transform="translate(0,0)"><g transform="scale(1)"><g><path d="M4.5-20.34L17.68-20.34 17.86-25.47 19.44-25.47 19.26-20.34 33.57-20.34Q33.48-15.03 33.28-10.37 33.07-5.71 32.67-2.07L32.67-2.07Q32.45-0.4 32.11 0.67 31.77 1.75 31.05 2.38 30.33 3.01 29.14 3.31 27.95 3.6 26.05 3.73L26.05 3.73Q25.65 3.78 24.97 3.8 24.3 3.82 23.56 3.82 22.81 3.82 22.14 3.82 21.46 3.82 21.15 3.82L21.15 3.82 20.88 1.98Q21.33 2.02 21.96 2.05 22.59 2.07 23.27 2.07 23.94 2.07 24.55 2.07 25.15 2.07 25.56 2.07L25.56 2.07Q27.22 2.02 28.24 1.82 29.25 1.62 29.83 1.13 30.42 0.63 30.69-0.32 30.96-1.26 31.14-2.79L31.14-2.79Q31.5-6.25 31.68-10.35 31.86-14.45 31.95-18.81L31.95-18.81 19.17-18.81 19.17-18.31Q18.77-8.73 15.84-3.92L15.84-3.92Q12.96 0.85 4.81 5.89L4.81 5.89 3.82 4.54Q11.65-0.22 14.45-4.77L14.45-4.77Q17.19-9.27 17.59-18.36L17.59-18.36 17.59-18.81 4.5-18.81 4.5-20.34ZM2.25-31.54L14.45-31.54 14.45-36.9 16.06-36.9 16.06-31.54 28.98-31.54 28.98-36.9 30.6-36.9 30.6-31.54 42.7-31.54 42.7-30.02 30.6-30.02 30.6-25.43 28.98-25.43 28.98-30.02 16.06-30.02 16.06-25.47 14.45-25.47 14.45-30.02 2.25-30.02 2.25-31.54ZM4.68-3.55L3.33-4.5Q5.04-6.75 6.75-9.67 8.46-12.6 9.76-15.48L9.76-15.48 11.29-14.85Q10.62-13.41 9.83-11.9 9.04-10.39 8.17-8.91 7.29-7.42 6.41-6.05 5.54-4.68 4.68-3.55L4.68-3.55ZM33.98-13L35.05-14.22Q36.72-12.73 39.33-9.95L39.33-9.95Q40.63-8.55 41.71-7.31 42.8-6.08 43.47-5.17L43.47-5.17 42.25-4Q41.58-4.91 40.59-6.08 39.6-7.25 38.3-8.69L38.3-8.69Q35.64-11.52 33.98-13L33.98-13ZM49.19 5.67L47.84 4.63Q53.46-1.08 55.13-5.98L55.13-5.98Q56.79-10.98 56.79-22.5L56.79-22.5 56.79-36.27 58.32-36.27 58.32-22.45Q58.32-10.75 56.61-5.35L56.61-5.35Q54.95-0.14 49.19 5.67L49.19 5.67ZM81.99-36.27L83.56-36.27 83.56 4.86 81.99 4.86 81.99-36.27ZM69.16-35.05L70.74-35.05 70.74 4.27 69.16 4.27 69.16-35.05ZM48.55-11.47L47.16-12.15Q47.79-13.37 48.47-14.94 49.14-16.52 49.75-18.25 50.35-19.98 50.87-21.69 51.39-23.4 51.75-24.84L51.75-24.84 53.28-24.43Q52.88-22.9 52.31-21.15 51.75-19.39 51.12-17.68 50.49-15.97 49.81-14.35 49.14-12.73 48.55-11.47L48.55-11.47ZM60.21-24.07L61.52-24.79Q62.14-23.76 62.93-22.25 63.72-20.75 64.48-19.13 65.25-17.5 65.9-15.91 66.56-14.31 66.91-13.18L66.91-13.18 65.47-12.55Q65.11-13.68 64.44-15.28 63.77-16.88 63.02-18.52 62.28-20.16 61.52-21.64 60.75-23.13 60.21-24.07L60.21-24.07ZM73.22-24.07L74.52-24.79Q75.15-23.76 75.87-22.36 76.59-20.97 77.44-19.13L77.44-19.13Q78.34-17.28 78.95-15.82 79.56-14.35 79.92-13.18L79.92-13.18 78.53-12.51Q77.76-14.89 76.09-18.4L76.09-18.4Q75.24-20.25 74.54-21.64 73.84-23.04 73.22-24.07L73.22-24.07ZM92.56-30.2L116.06-30.2Q116.69-30.78 117.38-31.59 118.08-32.4 118.98-33.44L118.98-33.44Q119.92-34.6 120.67-35.53 121.41-36.45 121.91-37.21L121.91-37.21 123.3-36.41Q122.81-35.64 122.09-34.7 121.36-33.75 120.38-32.58L120.38-32.58Q119.75-31.86 119.23-31.27 118.71-30.69 118.22-30.2L118.22-30.2 132.34-30.2 132.34-28.75 113.13-28.75 112.45-25.88 111.64-22.81 126.18-22.81 126.18 3.55 98.69 3.55 98.69-22.81 109.98-22.81 110.75-26.01Q110.97-26.77 111.13-27.47 111.28-28.17 111.38-28.75L111.38-28.75 92.56-28.75 92.56-30.2ZM100.31 2.07L124.56 2.07 124.56-5.13 100.31-5.13 100.31 2.07ZM100.31-21.33L100.31-14.4 124.56-14.4 124.56-21.33 100.31-21.33ZM100.31-12.91L100.31-6.57 124.56-6.57 124.56-12.91 100.31-12.91ZM101.83-36.23L102.91-37.26Q103.36-36.85 104.17-36.09 104.98-35.32 105.84-34.49 106.69-33.66 107.46-32.85 108.22-32.04 108.63-31.5L108.63-31.5 107.41-30.51Q106.97-31.05 106.29-31.79 105.61-32.53 104.85-33.32 104.08-34.11 103.3-34.88 102.51-35.64 101.83-36.23L101.83-36.23ZM138.47 5.04L137.12 4.37Q137.75 3.24 138.26 2.27 138.78 1.3 139.21 0.32 139.63-0.67 139.95-1.69 140.26-2.7 140.49-3.92L140.49-3.92Q140.85-5.94 141.05-8.66 141.25-11.38 141.3-15.39L141.3-15.39 136.89-15.39 136.89-16.96 141.3-16.96 141.3-17.5 141.3-31.68 145.22-31.68Q145.35-32.09 145.51-32.6 145.66-33.12 145.84-33.75L145.84-33.75Q146.12-34.74 146.32-35.53 146.52-36.31 146.61-36.9L146.61-36.9 148.19-36.67Q148.09-36.05 147.89-35.28 147.69-34.52 147.42-33.52L147.42-33.52Q147.24-32.98 147.1-32.51 146.97-32.04 146.79-31.68L146.79-31.68 153.31-31.68 153.31-0.22Q153.31 0.85 153.16 1.57 153 2.29 152.59 2.75 152.19 3.19 151.49 3.44 150.79 3.69 149.76 3.78L149.76 3.78Q148.77 3.87 147.49 3.89 146.21 3.92 145.17 3.82L145.17 3.82 144.9 2.16Q145.94 2.25 147.15 2.29 148.37 2.34 149.35 2.29L149.35 2.29Q150.12 2.25 150.59 2.14 151.06 2.02 151.34 1.73 151.6 1.44 151.69 0.92 151.78 0.4 151.78-0.4L151.78-0.4 151.78-15.39 142.78-15.39Q142.74-11.21 142.54-8.35 142.34-5.49 141.88-3.33L141.88-3.33Q141.39-0.94 140.56 0.94 139.72 2.83 138.47 5.04L138.47 5.04ZM142.78-17.64L142.78-16.96 151.78-16.96 151.78-30.11 142.78-30.11 142.78-17.64ZM155.52 5.22L154.35 4.23Q156.06 2.16 157 0.54 157.95-1.08 158.49-3.01L158.49-3.01Q159.07-4.95 159.28-7.54 159.48-10.13 159.48-13.99L159.48-13.99 159.48-20.75 171.22-20.75 171.22-1.53Q171.22-0.22 171.25 0.49 171.27 1.21 171.41 1.57 171.54 1.93 171.79 2.05 172.03 2.16 172.53 2.21L172.53 2.21Q173.2 2.29 174.01 2.21L174.01 2.21Q174.56 2.16 174.87 2.05 175.19 1.93 175.37 1.53 175.55 1.13 175.63 0.34 175.72-0.45 175.86-1.84L175.86-1.84 176.09-5.76 177.48-5.31 177.21-1.44Q177.07 0.18 176.89 1.19 176.72 2.21 176.38 2.75 176.04 3.28 175.5 3.49 174.96 3.69 174.1 3.73L174.1 3.73Q173.3 3.82 172.35 3.73L172.35 3.73Q171.54 3.69 171.02 3.46 170.5 3.24 170.24 2.68 169.97 2.11 169.85 1.13 169.74 0.14 169.74-1.48L169.74-1.48 169.74-19.17 160.97-19.17 160.97-13.77Q160.97-9.86 160.74-7.13 160.51-4.41 159.88-2.34L159.88-2.34Q159.3-0.32 158.24 1.44 157.19 3.19 155.52 5.22L155.52 5.22ZM163.62-36.27L165.15-36.63Q165.47-35.87 165.8-34.88 166.14-33.88 166.45-32.8L166.45-32.8Q166.72-31.86 166.95-30.96 167.18-30.06 167.35-29.38L167.35-29.38 177.66-29.38 177.66-27.86 155.34-27.86 155.34-29.38 165.69-29.38Q165.51-30.11 165.26-30.94 165.01-31.77 164.79-32.63L164.79-32.63Q164.47-33.75 164.16-34.72 163.84-35.68 163.62-36.27L163.62-36.27ZM144.9-11.88L146.16-12.55Q146.38-12.15 146.9-11.29 147.42-10.44 148.05-9.4L148.05-9.4Q148.54-8.5 149.06-7.56 149.58-6.61 149.94-5.8L149.94-5.8 148.68-5.13Q148.41-5.8 147.94-6.71 147.47-7.6 146.93-8.55L146.93-8.55Q146.38-9.49 145.84-10.37 145.31-11.25 144.9-11.88L144.9-11.88ZM144.9-26.37L146.07-27.04 148.14-23.8Q148.63-22.9 149.11-22.07 149.58-21.24 149.94-20.52L149.94-20.52 148.68-19.8Q148.46-20.43 147.94-21.35 147.42-22.27 146.84-23.31L146.84-23.31Q146.29-24.21 145.78-25.02 145.26-25.83 144.9-26.37L144.9-26.37Z" transform="translate(-2.25, 37.2599983215332)"></path></g> <!----> <!----> <!----> <!----> <!----> <!----> <!----></g></g> <g data-gra="path-slogan" fill-rule="" class="tp-slogan iconsvg-slogansvg" fill="#333" transform="translate(5,49.14999771118164)"><rect x="0" height="1" y="3.9750003814697266" width="13.044174194335938"></rect> <rect height="1" y="3.9750003814697266" width="13.044174194335938" x="152.36582946777344"></rect> <g transform="translate(16.044174194335938,0)"><g transform="scale(1)"><path d="M7.17-6.09L7.17-6.09L6.09-6.09Q6-7.73 3.94-7.83L3.94-7.83Q2.02-7.78 2.02-6.33L2.02-6.33Q2.02-5.39 3.05-5.25L3.05-5.25L5.48-4.69Q7.41-4.22 7.41-2.34L7.41-2.34Q7.36 0.05 4.03 0.14L4.03 0.14Q2.20 0.14 1.45-0.61L1.45-0.61Q0.52-1.31 0.56-2.77L0.56-2.77L1.69-2.77Q1.73-0.80 4.03-0.75L4.03-0.75Q6.28-0.80 6.33-2.20L6.33-2.20Q6.52-3.38 4.45-3.75L4.45-3.75L2.67-4.13Q0.84-4.64 0.84-6.19L0.84-6.19Q0.98-8.72 3.84-8.81L3.84-8.81Q7.08-8.81 7.17-6.09ZM14.53-3.19L14.53-8.58L15.70-8.58L15.70-3.05Q15.56 0.05 12.19 0.14L12.19 0.14Q9.05 0.05 8.91-2.86L8.91-2.86L8.91-8.58L10.08-8.58L10.08-3.19Q10.13-0.84 12.23-0.80L12.23-0.80Q14.53-0.84 14.53-3.19L14.53-3.19ZM18.33-1.03L23.63-1.03L23.63 0L16.88 0L16.88-0.94L22.13-7.59L17.25-7.59L17.25-8.58L23.63-8.58L23.63-7.59L18.33-1.03ZM25.92-5.06L30.42-5.06L30.42-8.58L31.59-8.58L31.59 0L30.42 0L30.42-3.98L25.92-3.98L25.92 0L24.75 0L24.75-8.58L25.92-8.58L25.92-5.06ZM40.17-4.27L40.17-4.27Q39.98-7.64 37.17-7.83L37.17-7.83Q34.31-7.69 34.17-4.27L34.17-4.27Q34.31-0.94 37.17-0.80L37.17-0.80Q39.98-0.98 40.17-4.27ZM41.34-4.27L41.34-4.27Q41.06 0 37.17 0.14L37.17 0.14Q33.23 0 32.95-4.27L32.95-4.27Q33.19-8.72 37.17-8.81L37.17-8.81Q41.06-8.67 41.34-4.27ZM48.38-3.19L48.38-8.58L49.55-8.58L49.55-3.05Q49.41 0.05 46.03 0.14L46.03 0.14Q42.89 0.05 42.75-2.86L42.75-2.86L42.75-8.58L43.92-8.58L43.92-3.19Q43.97-0.84 46.08-0.80L46.08-0.80Q48.38-0.84 48.38-3.19L48.38-3.19ZM60.19-3.89L55.97-3.89L55.97 0L54.80 0L54.80-8.58L60.75-8.58L60.75-7.59L55.97-7.59L55.97-4.92L60.19-4.92L60.19-3.89ZM62.11-8.58L63.28-8.58L63.28 0L62.11 0L62.11-8.58ZM69.38-3.70L66.56-3.70L66.56 0L65.39 0L65.39-8.58L69.38-8.58Q72.23-8.58 72.23-6.28L72.23-6.28Q72.23-4.88 71.02-4.22L71.02-4.22Q72.05-3.94 72.05-2.58L72.05-2.58L72.14-1.03Q72.09-0.38 72.56-0.19L72.56-0.19L72.56 0L71.11 0Q70.97-0.61 70.92-2.16L70.92-2.16Q70.97-3.70 69.38-3.70L69.38-3.70ZM69.47-7.64L66.56-7.64L66.56-4.69L69.28-4.69Q71.02-4.69 71.02-6.19L71.02-6.19Q71.02-7.64 69.47-7.64L69.47-7.64ZM80.16-6.09L80.16-6.09L79.08-6.09Q78.98-7.73 76.92-7.83L76.92-7.83Q75-7.78 75-6.33L75-6.33Q75-5.39 76.03-5.25L76.03-5.25L78.47-4.69Q80.39-4.22 80.39-2.34L80.39-2.34Q80.34 0.05 77.02 0.14L77.02 0.14Q75.19 0.14 74.44-0.61L74.44-0.61Q73.50-1.31 73.55-2.77L73.55-2.77L74.67-2.77Q74.72-0.80 77.02-0.75L77.02-0.75Q79.27-0.80 79.31-2.20L79.31-2.20Q79.50-3.38 77.44-3.75L77.44-3.75L75.66-4.13Q73.83-4.64 73.83-6.19L73.83-6.19Q73.97-8.72 76.83-8.81L76.83-8.81Q80.06-8.81 80.16-6.09ZM84.05-7.59L81.14-7.59L81.14-8.58L88.08-8.58L88.08-7.59L85.17-7.59L85.17 0L84.05 0L84.05-7.59ZM97.97-3.89L93.75-3.89L93.75 0L92.58 0L92.58-8.58L98.53-8.58L98.53-7.59L93.75-7.59L93.75-4.92L97.97-4.92L97.97-3.89ZM99.70-8.58L100.88-8.58L100.88-1.03L105.23-1.03L105.23 0L99.70 0L99.70-8.58ZM106.55-8.58L107.72-8.58L107.72 0L106.55 0L106.55-8.58ZM116.11-3.61L113.48-3.61L113.48-4.59L117.23-4.59L117.23 0L116.48 0L116.20-1.08Q115.22 0.09 113.39 0.14L113.39 0.14Q111.66 0.14 110.72-0.75L110.72-0.75Q109.31-2.06 109.36-4.36L109.36-4.36Q109.69-8.63 113.44-8.81L113.44-8.81Q116.63-8.63 117.09-6L117.09-6L115.97-6Q115.50-7.78 113.39-7.83L113.39-7.83Q110.72-7.64 110.58-4.31L110.58-4.31Q110.58-0.75 113.44-0.75L113.44-0.75Q114.47-0.75 115.22-1.31L115.22-1.31Q116.16-2.06 116.11-3.61L116.11-3.61ZM120.19-5.06L124.69-5.06L124.69-8.58L125.86-8.58L125.86 0L124.69 0L124.69-3.98L120.19-3.98L120.19 0L119.02 0L119.02-8.58L120.19-8.58L120.19-5.06ZM129.84-7.59L126.94-7.59L126.94-8.58L133.88-8.58L133.88-7.59L130.97-7.59L130.97 0L129.84 0L129.84-7.59Z" transform="translate(-0.5602678571428572, 8.8125)"></path></g></g></g></g></g><defs v-gra="od"></defs></svg>